<?xml version="1.0" standalone="no"?>
<!DOCTYPE svg PUBLIC "-//W3C//DTD SVG 20010904//EN"
 "http://www.w3.org/TR/2001/REC-SVG-20010904/DTD/svg10.dtd">
<svg version="1.0" xmlns="http://www.w3.org/2000/svg"
 width="1000.000000pt" height="1000.000000pt" viewBox="0 0 1000.000000 1000.000000"
 preserveAspectRatio="xMidYMid meet">
<metadata>
Created by potrace 1.14, written by Peter Selinger 2001-2017
</metadata>
<g transform="translate(0.000000,1000.000000) scale(0.100000,-0.100000)"
fill="#000000" stroke="none">
<path d="M3290 8626 c-84 -24 -154 -68 -231 -145 -123 -123 -202 -270 -271
-501 -68 -226 -88 -374 -95 -700 -6 -275 14 -577 42 -629 13 -26 11 -28 -144
-181 -238 -235 -330 -367 -425 -611 -150 -383 -153 -847 -9 -1219 37 -95 77
-176 128 -255 24 -38 44 -76 45 -84 0 -7 -24 -68 -54 -135 -96 -217 -135 -354
-165 -585 -27 -200 -27 -387 -1 -579 19 -132 71 -351 90 -377 4 -5 13 -28 20
-50 15 -46 99 -210 135 -263 14 -20 25 -42 25 -48 0 -6 -20 -45 -44 -87 -51
-90 -91 -196 -120 -322 l-22 -90 -1098 -3 -1099 -2 6 -218 c6 -249 20 -343 77
-513 77 -234 184 -404 364 -585 181 -180 351 -286 585 -364 245 -82 -146 -75
3971 -75 3492 0 3669 1 3760 18 312 59 571 197 796 421 180 181 286 351 364
585 57 170 71 264 77 513 l6 218 -375 0 -375 0 4 23 c6 30 -261 1191 -286
1244 -12 25 -36 52 -58 67 -21 13 -257 128 -524 256 l-486 231 -17 102 c-29
178 -84 350 -172 536 l-44 93 19 32 c140 222 215 430 246 678 34 278 8 508
-92 813 -82 252 -164 377 -401 613 -173 172 -173 173 -163 205 49 158 62 679
23 958 -57 416 -176 708 -359 879 -117 111 -208 150 -348 150 -130 0 -228 -42
-341 -144 -185 -167 -340 -544 -388 -944 -8 -62 -16 -115 -18 -118 -3 -2 -47
18 -99 45 -321 168 -660 229 -984 177 -139 -23 -348 -92 -489 -162 -59 -30
-109 -54 -111 -54 -1 0 -5 21 -8 48 -41 345 -134 640 -272 858 -51 80 -177
203 -245 238 -30 16 -77 35 -105 42 -62 17 -185 16 -245 0z m150 -446 c23 -12
81 -93 114 -159 101 -199 164 -496 173 -827 l6 -191 -27 -45 -26 -45 -83 -6
c-129 -9 -381 -51 -428 -71 -20 -9 -27 44 -35 289 -15 423 87 878 232 1031 33
36 45 40 74 24z m3209 -29 c101 -110 183 -363 217 -671 13 -122 15 -199 10
-360 -8 -257 -13 -294 -35 -286 -95 31 -371 77 -463 76 -47 0 -48 1 -73 50
-23 45 -25 61 -25 173 0 209 48 527 106 712 53 164 163 345 211 345 9 0 32
-18 52 -39z m-1474 -942 c143 -21 342 -104 492 -203 166 -109 310 -280 389
-462 18 -40 38 -68 61 -84 32 -22 38 -22 136 -14 137 12 214 10 322 -9 149
-26 293 -91 429 -194 466 -350 631 -1023 376 -1535 -34 -67 -88 -155 -110
-178 -68 -71 -80 -90 -94 -141 -19 -76 -8 -121 58 -234 71 -123 90 -159 120
-236 56 -141 107 -356 94 -390 -3 -8 -194 -103 -424 -213 -231 -109 -436 -209
-457 -222 -22 -15 -46 -42 -57 -67 -24 -50 -281 -1163 -284 -1224 l-1 -43
-1782 0 c-1692 0 -1783 1 -1783 18 0 9 12 44 25 77 14 33 25 64 25 68 0 5 8
21 19 35 16 23 75 130 118 213 18 36 27 109 19 162 -7 44 -34 93 -112 197 -94
127 -171 333 -200 535 -54 378 32 778 240 1120 43 70 60 126 53 172 -9 52 -45
115 -86 148 -43 34 -118 146 -160 237 -78 169 -108 340 -98 557 13 272 81 463
254 711 44 63 203 214 277 263 153 102 267 146 444 172 92 14 128 15 194 6
125 -17 181 -14 208 9 13 11 27 20 31 20 4 0 13 17 20 38 18 55 94 185 152
261 60 77 161 172 243 226 69 46 262 144 306 156 18 4 65 17 103 29 129 38
277 44 440 19z m2610 -3974 c28 -27 29 -39 14 -152 -10 -71 -10 -86 4 -116 15
-31 22 -35 67 -40 127 -15 309 -102 413 -197 32 -29 58 -46 62 -40 3 5 17 10
31 10 18 0 47 22 101 75 82 82 114 94 153 55 37 -37 23 -85 -37 -121 -104 -62
-143 -92 -143 -109 0 -11 -4 -21 -9 -24 -5 -4 10 -46 35 -94 62 -123 86 -221
87 -364 l2 -116 31 -21 c21 -15 53 -23 100 -27 89 -7 130 -20 149 -47 20 -29
19 -53 -5 -77 -27 -27 -63 -25 -169 10 -65 22 -96 28 -109 21 -9 -5 -21 -9
-26 -9 -5 0 -20 -27 -34 -59 -53 -129 -202 -310 -301 -369 -52 -31 -41 -86 38
-204 36 -53 40 -101 11 -130 -48 -48 -95 -10 -135 110 -19 57 -37 92 -57 111
l-30 26 -61 -21 c-53 -17 -85 -20 -227 -20 -141 0 -174 3 -228 21 -53 18 -64
19 -69 7 -3 -8 -11 -14 -19 -14 -17 0 -26 -17 -59 -118 -37 -113 -87 -150
-135 -102 -31 31 -24 69 27 150 31 49 49 91 53 120 5 44 5 46 -40 76 -119 83
-207 186 -271 318 -22 44 -39 85 -39 90 0 24 -92 17 -181 -14 -84 -29 -91 -30
-119 -15 -50 26 -49 89 1 115 11 6 61 16 111 21 69 7 96 14 117 32 27 22 28
24 28 137 1 140 24 238 86 360 36 72 41 88 31 107 -19 38 -43 60 -115 103 -92
54 -112 97 -69 140 36 36 66 26 145 -50 47 -46 85 -74 109 -81 40 -11 33 -15
137 70 95 78 301 161 397 161 22 0 32 5 32 15 0 8 5 24 12 34 9 15 9 41 -1
114 -11 83 -10 100 3 125 25 49 64 55 101 17z"/>
<path d="M4780 5364 c-133 -19 -294 -72 -415 -136 -49 -25 -136 -79 -151 -93
-7 -5 -37 -30 -68 -54 -71 -56 -158 -154 -211 -240 -5 -9 -18 -27 -27 -42 -31
-47 -76 -174 -92 -260 -39 -209 -1 -410 112 -589 57 -90 194 -218 302 -282
115 -68 192 -99 330 -134 97 -24 126 -27 370 -31 388 -8 557 17 755 112 338
162 525 437 525 773 0 263 -114 494 -341 690 -69 60 -259 182 -284 182 -3 0
-31 11 -61 25 -30 14 -58 25 -63 25 -5 0 -35 9 -68 19 -151 48 -418 63 -613
35z m415 -299 c265 -44 491 -181 621 -376 99 -150 124 -311 69 -461 -15 -43
-34 -83 -41 -89 -8 -6 -14 -17 -14 -24 0 -20 -122 -140 -180 -177 -75 -48
-159 -83 -260 -110 -80 -22 -104 -23 -385 -23 -297 0 -301 0 -397 27 -146 42
-254 98 -333 175 -91 89 -136 164 -160 265 -72 308 156 624 545 755 152 51
364 66 535 38z"/>
<path d="M4792 4668 c-38 -19 -65 -73 -59 -119 7 -54 28 -83 92 -126 61 -40
63 -44 43 -148 -20 -110 24 -165 130 -165 66 0 106 22 128 69 15 32 16 40 1
109 -9 41 -13 80 -9 88 4 7 32 31 63 53 98 70 115 157 42 221 -33 29 -41 32
-89 28 -36 -3 -66 -14 -95 -32 l-41 -28 -27 19 c-54 40 -132 53 -179 31z"/>
<path d="M3437 5315 c-95 -26 -152 -81 -203 -195 -24 -53 -29 -79 -29 -140 0
-64 4 -82 27 -121 53 -91 125 -136 231 -146 92 -8 140 9 209 75 198 188 150
472 -89 528 -69 16 -83 16 -146 -1z"/>
<path d="M6424 5316 c-77 -19 -141 -72 -183 -151 -16 -31 -21 -58 -21 -119 0
-68 4 -87 32 -143 20 -42 51 -82 89 -117 82 -74 144 -89 261 -65 65 14 125 58
170 124 31 47 33 55 33 140 0 84 -3 94 -37 160 -58 109 -100 145 -195 170 -67
17 -81 18 -149 1z"/>
<path d="M7572 2740 c-40 -11 -103 -35 -140 -55 -67 -35 -152 -99 -142 -107
21 -18 250 -178 268 -187 27 -14 58 -7 71 17 5 9 12 82 15 162 4 80 9 155 12
168 5 26 8 26 -84 2z"/>
<path d="M7833 2602 c9 -191 11 -200 43 -214 22 -10 33 -6 117 52 51 35 116
81 146 103 l54 40 -39 33 c-72 61 -182 111 -304 138 l-25 5 8 -157z"/>
<path d="M7150 2388 c-37 -79 -60 -181 -60 -271 0 -60 2 -68 18 -63 9 3 82 24
162 47 80 23 151 46 158 52 6 5 12 22 12 37 0 22 -18 44 -92 111 -51 46 -110
99 -130 118 l-37 34 -31 -65z"/>
<path d="M8168 2334 c-109 -97 -128 -119 -128 -144 0 -37 4 -39 177 -89 77
-23 149 -44 159 -48 16 -6 17 1 11 93 -6 99 -29 189 -68 266 -11 21 -20 38
-22 38 -1 0 -59 -52 -129 -116z"/>
<path d="M7675 2196 c-44 -60 -44 -60 -34 -107 9 -40 15 -48 54 -67 l45 -22
44 22 c36 17 46 27 51 55 3 19 8 40 11 47 2 6 -8 28 -23 49 -26 34 -32 36 -83
37 -35 0 -59 -5 -65 -14z"/>
<path d="M7280 1913 c-80 -14 -147 -27 -148 -28 -2 -2 13 -36 34 -77 26 -50
63 -99 120 -155 45 -46 86 -83 91 -83 13 0 133 291 133 322 0 55 -20 57 -230
21z"/>
<path d="M7982 1928 c-7 -7 -12 -21 -12 -32 0 -25 121 -326 131 -326 18 0 113
88 155 143 43 57 101 164 93 171 -6 5 -314 56 -336 56 -11 0 -24 -5 -31 -12z"/>
<path d="M7711 1793 c-22 -19 -176 -292 -168 -299 10 -10 146 -34 196 -34 60
0 170 17 190 30 10 6 -4 39 -60 141 -70 127 -107 179 -127 179 -6 0 -19 -8
-31 -17z"/>
</g>
</svg>
